<svg width="41" height="41" viewBox="0 0 41 41" fill="none" xmlns="http://www.w3.org/2000/svg">
    <circle cx="20.5391" cy="20.0415" r="19.25" stroke="#666666" stroke-width="1.5"/>
    <mask id="path-2-inside-1" fill="white">
        <path fill-rule="evenodd" clip-rule="evenodd" d="M6.13279 33.914C6.30702 28.7308 9.21778 24.2412 13.4661 21.8442C15.1898 23.8095 17.7196 25.0502 20.5391 25.0502C23.3586 25.0502 25.8883 23.8095 27.612 21.8443C31.8606 24.2414 34.7714 28.7314 34.9453 33.915C31.3072 37.6918 26.1978 40.0415 20.5396 40.0415C14.8808 40.0415 9.77098 37.6914 6.13279 33.914Z"/>
    </mask>
    <path d="M13.4661 21.8442L14.5938 20.8551L13.7903 19.939L12.729 20.5378L13.4661 21.8442ZM6.13279 33.914L4.63364 33.8636L4.61232 34.4976L5.05241 34.9546L6.13279 33.914ZM27.612 21.8443L28.3491 20.5379L27.2879 19.9391L26.4844 20.8552L27.612 21.8443ZM34.9453 33.915L36.0256 34.9557L36.4657 34.4988L36.4445 33.8647L34.9453 33.915ZM12.729 20.5378C8.04241 23.1821 4.82611 28.1378 4.63364 33.8636L7.63194 33.9644C7.78794 29.3238 10.3931 25.3003 14.2032 23.1506L12.729 20.5378ZM20.5391 23.5502C18.1695 23.5502 16.0448 22.5095 14.5938 20.8551L12.3384 22.8333C14.3349 25.1095 17.2696 26.5502 20.5391 26.5502V23.5502ZM26.4844 20.8552C25.0333 22.5095 22.9086 23.5502 20.5391 23.5502V26.5502C23.8085 26.5502 26.7433 25.1095 28.7397 22.8334L26.4844 20.8552ZM36.4445 33.8647C36.2524 28.1385 33.036 23.1823 28.3491 20.5379L26.8749 23.1507C30.6852 25.3005 33.2905 29.3243 33.4462 33.9653L36.4445 33.8647ZM33.865 32.8744C30.4979 36.3698 25.7736 38.5415 20.5396 38.5415V41.5415C26.6219 41.5415 32.1165 39.0138 36.0256 34.9557L33.865 32.8744ZM20.5396 38.5415C15.305 38.5415 10.5803 36.3694 7.21317 32.8734L5.05241 34.9546C8.96163 39.0134 14.4566 41.5415 20.5396 41.5415V38.5415Z" fill="#666666" mask="url(#path-2-inside-1)"/>
    <circle cx="20.5388" cy="14.719" r="7.68626" stroke="#666666" stroke-width="1.5"/>
</svg>
