<svg width="25" height="26" viewBox="0 0 25 26" fill="none" xmlns="http://www.w3.org/2000/svg">
<path d="M18.5538 6.07807C19.4791 6.07807 20.2286 5.33354 20.2286 4.4066V2.6572C20.2286 1.72944 19.4799 0.982422 18.5538 0.982422C17.6277 0.982422 16.8799 1.72861 16.8799 2.6572V4.40743C16.8807 5.33354 17.6286 6.07807 18.5538 6.07807Z" fill="#DADADA"/>
<path d="M24.5041 3.87969H21.1329V4.73117C21.1329 6.1365 19.9913 7.28148 18.5835 7.28148C17.174 7.28148 16.0348 6.1365 16.0348 4.73117V3.87969H9.23205V4.73117C9.23205 6.1365 8.08873 7.28148 6.68174 7.28148C5.27476 7.28148 4.13226 6.13732 4.13226 4.73117V3.87969L0.730469 3.8374V25.127H2.43178H22.8309L24.5298 25.122L24.5041 3.87969ZM22.8293 23.4315H2.43178V9.83096H22.8309V23.4315H22.8293Z" fill="#DADADA"/>
<path d="M6.65554 6.07807C7.58082 6.07807 8.33115 5.33354 8.33115 4.4066V2.6572C8.33115 1.72861 7.58082 0.982422 6.65554 0.982422C5.73027 0.982422 4.98242 1.72861 4.98242 2.6572V4.40743C4.98242 5.33354 5.72944 6.07807 6.65554 6.07807Z" fill="#DADADA"/>
<path d="M11.9161 11.6555H9.2373V14.0201H11.9161V11.6555Z" fill="#DADADA"/>
<path d="M16.2497 11.6555H13.5684V14.0201H16.2497V11.6555Z" fill="#DADADA"/>
<path d="M20.2638 11.6555H17.585V14.0201H20.2638V11.6555Z" fill="#DADADA"/>
<path d="M11.9161 15.5823H9.2373V17.9452H11.9161V15.5823Z" fill="#DADADA"/>
<path d="M16.2497 15.5823H13.5684V17.9452H16.2497V15.5823Z" fill="#DADADA"/>
<path d="M20.2638 15.5823H17.585V17.9452H20.2638V15.5823Z" fill="#DADADA"/>
<path d="M11.9161 19.5869H9.2373V21.9498H11.9161V19.5869Z" fill="#DADADA"/>
<path d="M7.65958 15.5823H4.98242V17.9452H7.65958V15.5823Z" fill="#DADADA"/>
<path d="M7.65958 19.5869H4.98242V21.9498H7.65958V19.5869Z" fill="#DADADA"/>
<path d="M16.2497 19.5869H13.5684V21.9498H16.2497V19.5869Z" fill="#DADADA"/>
<path d="M20.2638 19.5869H17.585V21.9498H20.2638V19.5869Z" fill="#DADADA"/>
</svg>
