<svg width="24" height="22" viewBox="0 0 24 22" fill="none" xmlns="http://www.w3.org/2000/svg">
<path d="M13.6356 0.370579C13.5265 0.281908 13.3828 0.248009 13.2455 0.278587L1.28477 3.03877C1.07426 3.08716 0.925728 3.27545 0.927755 3.49144V19.1325C0.927841 19.3595 1.0935 19.5525 1.31785 19.587L13.2786 21.4271C13.5297 21.4657 13.7646 21.2935 13.8032 21.0424C13.8068 21.0193 13.8086 20.996 13.8086 20.9727V0.731257C13.809 0.590962 13.7453 0.458171 13.6356 0.370579Z" fill="#1565C0"/>
<path d="M22.5493 19.5925H13.3487C13.0947 19.5925 12.8887 19.3865 12.8887 19.1324C12.8887 18.8783 13.0947 18.6724 13.3487 18.6724H22.0893V3.03137H13.3487C13.0947 3.03137 12.8887 2.8254 12.8887 2.57133C12.8887 2.31726 13.0947 2.11133 13.3487 2.11133H22.5493C22.8034 2.11133 23.0093 2.31731 23.0093 2.57137V19.1325C23.0093 19.3865 22.8034 19.5925 22.5493 19.5925Z" fill="#1565C0"/>
<path d="M8.74838 14.9922C8.54339 14.992 8.36334 14.8562 8.30675 14.6591L6.90825 9.76625L5.50974 14.6591C5.40874 14.9033 5.12892 15.0193 4.88473 14.9183C4.76734 14.8698 4.6741 14.7765 4.62553 14.6591L2.78544 8.21874C2.70842 7.97662 2.84228 7.71794 3.0844 7.64091C3.32652 7.56388 3.5852 7.69775 3.66223 7.93987C3.66495 7.94841 3.66741 7.95704 3.66965 7.96571L5.06811 12.8577L6.46662 7.9648C6.56762 7.72065 6.84744 7.6046 7.09163 7.7056C7.20902 7.75416 7.30226 7.84741 7.35082 7.9648L8.74838 12.8577L10.1469 7.96575C10.2131 7.72363 10.4631 7.58101 10.7052 7.64721C10.7086 7.64816 10.712 7.64915 10.7155 7.65014C10.9596 7.72009 11.1008 7.97459 11.0311 8.21874L9.19092 14.6591C9.13425 14.8565 8.95367 14.9924 8.74838 14.9922Z" fill="#FAFAFA"/>
<path d="M20.7092 5.79216H13.3487C13.0947 5.79216 12.8887 5.58618 12.8887 5.33211C12.8887 5.07805 13.0947 4.87207 13.3487 4.87207H20.7092C20.9633 4.87207 21.1693 5.07805 21.1693 5.33211C21.1693 5.58622 20.9633 5.79216 20.7092 5.79216Z" fill="#1565C0"/>
<path d="M20.7087 8.55192H13.3482C13.0942 8.55192 12.8882 8.34595 12.8882 8.09188C12.8882 7.83781 13.0942 7.63184 13.3482 7.63184H20.7087C20.9628 7.63184 21.1688 7.83781 21.1688 8.09188C21.1688 8.34595 20.9628 8.55192 20.7087 8.55192Z" fill="#1565C0"/>
<path d="M20.7087 11.3127H13.3482C13.0942 11.3127 12.8882 11.1067 12.8882 10.8526C12.8882 10.5986 13.0942 10.3926 13.3482 10.3926H20.7087C20.9628 10.3926 21.1688 10.5986 21.1688 10.8526C21.1688 11.1067 20.9628 11.3127 20.7087 11.3127Z" fill="#1565C0"/>
<path d="M20.7087 14.0724H13.3482C13.0942 14.0724 12.8882 13.8665 12.8882 13.6124C12.8882 13.3583 13.0942 13.1523 13.3482 13.1523H20.7087C20.9628 13.1523 21.1688 13.3583 21.1688 13.6124C21.1688 13.8665 20.9628 14.0724 20.7087 14.0724Z" fill="#1565C0"/>
<path d="M20.7087 16.8322H13.3482C13.0942 16.8322 12.8882 16.6262 12.8882 16.3722C12.8882 16.1181 13.0942 15.9121 13.3482 15.9121H20.7087C20.9628 15.9121 21.1688 16.1181 21.1688 16.3722C21.1688 16.6263 20.9628 16.8322 20.7087 16.8322Z" fill="#1565C0"/>
</svg>
