<svg width="24" height="15" viewBox="0 0 24 15" fill="none" xmlns="http://www.w3.org/2000/svg">
<path fill-rule="evenodd" clip-rule="evenodd" d="M2.42177 7.83689C3.54874 9.21908 6.904 12.7365 11.8428 12.7365C16.7812 12.7365 20.1355 9.22006 21.2639 7.83689C20.1355 6.45421 16.7812 2.93725 11.8428 2.93725C6.90449 2.93725 3.5497 6.45421 2.42177 7.83689ZM11.8427 14.6965C4.67901 14.6965 0.571135 8.64253 0.39943 8.38481C0.179357 8.0536 0.179357 7.62096 0.39943 7.28974C0.571135 7.03202 4.67901 0.977539 11.8427 0.977539C19.006 0.977539 23.1144 7.03202 23.2861 7.28974C23.5061 7.62096 23.5061 8.0536 23.2861 8.38481C23.1144 8.64253 19.006 14.6965 11.8427 14.6965Z" fill="#DADADA"/>
<path fill-rule="evenodd" clip-rule="evenodd" d="M10.5137 6.94559C9.73003 6.94559 9.09403 6.30959 9.09403 5.52595C9.09403 4.74288 9.73003 4.10632 10.5137 4.10632C11.2973 4.10632 11.9333 4.74288 11.9333 5.52595C11.9333 6.30959 11.2973 6.94559 10.5137 6.94559ZM7.30078 6.94518C7.30078 9.4551 9.3337 11.488 11.8436 11.488C14.3535 11.488 16.3865 9.4551 16.3865 6.94518C16.3865 4.43583 14.3535 2.40234 11.8436 2.40234C9.3337 2.40234 7.30078 4.43583 7.30078 6.94518Z" fill="#DADADA"/>
</svg>
