<svg width="19" height="18" viewBox="0 0 19 18" fill="none" xmlns="http://www.w3.org/2000/svg">
<path d="M8.838 1.06865C9.13735 0.147342 10.4408 0.147341 10.7401 1.06865L12.2144 5.60611C12.3483 6.01813 12.7323 6.29709 13.1655 6.29709H17.9364C18.9052 6.29709 19.3079 7.5367 18.5242 8.1061L14.6644 10.9104C14.3139 11.165 14.1673 11.6164 14.3012 12.0284L15.7755 16.5659C16.0748 17.4872 15.0203 18.2533 14.2366 17.6839L10.3768 14.8796C10.0264 14.625 9.55176 14.625 9.20127 14.8796L5.34149 17.6839C4.55777 18.2533 3.50329 17.4872 3.80264 16.5659L5.27695 12.0284C5.41083 11.6164 5.26417 11.165 4.91368 10.9104L1.05389 8.1061C0.27018 7.5367 0.672954 6.29709 1.64168 6.29709H6.41264C6.84587 6.29709 7.22982 6.01813 7.36369 5.6061L8.838 1.06865Z" fill="#DADADA"/>
</svg>
