<svg width="592" height="332" viewBox="0 0 592 332" fill="none" xmlns="http://www.w3.org/2000/svg">
<path fill-rule="evenodd" clip-rule="evenodd" d="M298.588 111.66C298.588 110.042 297.309 108.722 295.741 108.722C294.169 108.722 292.893 110.042 292.893 111.66C292.893 113.285 294.169 114.606 295.741 114.606C297.309 114.606 298.588 113.285 298.588 111.66ZM312.954 111.66C312.954 110.042 311.68 108.722 310.106 108.722C308.538 108.722 307.263 110.042 307.263 111.66C307.263 113.285 308.538 114.606 310.106 114.606C311.68 114.606 312.954 113.285 312.954 111.66ZM290.634 35.3541C290.634 38.3875 293.024 40.8641 295.963 40.8641C298.905 40.8641 301.294 38.3875 301.294 35.3541C301.294 32.3167 298.905 29.8428 295.963 29.8428C293.024 29.8428 290.634 32.3167 290.634 35.3541ZM292.349 23.6473H299.605L298.821 14.8655L306.702 15.7068V8.75945L298.821 9.59807L299.605 0.820312H292.349L293.13 9.59807L285.25 8.75945V15.7068L293.13 14.8655L292.349 23.6473ZM284.222 111.66C284.222 110.042 282.943 108.722 281.372 108.722C279.802 108.722 278.524 110.042 278.524 111.66C278.524 113.285 279.802 114.606 281.372 114.606C282.943 114.606 284.222 113.285 284.222 111.66ZM267.12 122.56C267.89 122.838 268.781 122.988 269.834 122.988H322.121C323.176 122.988 324.066 122.838 324.833 122.56C326.522 121.953 327.548 120.683 327.947 118.654H264.007C264.404 120.683 265.431 121.953 267.12 122.56ZM269.994 111.66C269.994 110.042 268.718 108.722 267.146 108.722C265.577 108.722 264.297 110.042 264.297 111.66C264.297 113.285 265.577 114.606 267.146 114.606C268.718 114.606 269.994 113.285 269.994 111.66ZM327.183 111.66C327.183 110.042 325.903 108.722 324.338 108.722C322.766 108.722 321.488 110.042 321.488 111.66C321.488 113.285 322.766 114.606 324.338 114.606C325.903 114.606 327.183 113.285 327.183 111.66ZM330.6 104.687C332.075 102.854 339.402 88.6546 339.402 74.3195C339.402 61.4178 323.222 54.3159 313.595 53.9908C312.481 72.4214 305.317 101.35 295.98 101.35C287.143 101.35 279.464 72.5881 278.362 53.9908C268.737 54.3159 252.557 61.4178 252.557 74.3195C252.557 88.6546 259.882 102.854 261.357 104.687H330.6ZM295.98 92.1974C300.376 92.1974 306.059 73.844 307.511 56.4727C307.511 52.9557 303.113 47.5758 295.98 47.4362C288.844 47.5758 284.445 52.9557 284.445 56.4727C285.721 72.6721 291.649 92.1974 295.98 92.1974ZM156.194 185.884C147.661 197.642 159.46 210.509 160.189 211.398C160.701 212.025 161.141 211.742 161.063 211.039C161.001 210.434 167.204 192.305 202.911 201.852C203.675 202.057 204.143 202.072 203.428 201.33C196.832 196.092 189.006 184.349 186.475 174.904C186.475 174.904 164.728 174.127 156.194 185.884ZM175.336 183.426C175.336 180.142 180.105 179.235 182.847 179.235C182.847 179.235 184.05 182.406 185.257 184.163C182.475 182.916 178.611 182.789 175.336 183.426ZM194.29 168.083C191.915 168.083 191.028 169.599 191.804 172.222C200.009 199.929 222.375 206.5 231.205 218.501C231.205 218.501 231.143 214.762 235.24 205.842C238.027 210.429 245.579 219.021 250.488 220.114C249.315 217.644 247.92 207.888 249.006 201.332C260.598 211.492 274.886 213.488 282.554 207.626C276.026 207.877 267.524 200.596 263.245 194.138C269.22 195.521 277.445 194.095 279.141 192.375C275.367 191.452 270.79 188.098 268.033 184.91C272.273 184.617 281.471 181.135 284.101 176.228C280.413 177.066 274.943 175.557 271.383 173.669C274.096 172.201 280.864 164.931 282.488 158.551C272.876 163.274 257.71 167.973 235.242 167.973C235.242 167.973 195.544 168.083 194.29 168.083ZM219.091 180.714C212.74 183.236 209.557 186.641 209.557 186.641C209.557 186.641 206.51 181.628 205.537 180.017C204.564 178.406 204.259 176.432 207.541 176.432H227.232C227.232 177.778 225.442 178.194 219.091 180.714ZM151.874 225.8C153.928 228.531 159.743 236.872 172.5 229.415C185.254 221.956 191.832 217.895 191.832 217.895C191.832 217.895 189.84 221.744 191.352 226.359C191.44 226.625 191.739 226.612 191.856 226.339C193.125 223.351 204.203 214.709 218.33 213.513C213.151 208.979 207.468 204.937 207.468 204.937C201.434 205.913 189.735 210.047 174.602 219.893C159.468 229.738 152.497 225.626 152.208 225.442C151.919 225.256 151.509 225.314 151.874 225.8ZM405.481 174.904C402.953 184.349 395.126 196.092 388.531 201.33C387.815 202.072 388.283 202.057 389.047 201.852C424.753 192.305 430.956 210.434 430.893 211.039C430.816 211.742 431.256 212.025 431.768 211.398C432.498 210.509 444.297 197.642 435.764 185.884C427.228 174.127 405.481 174.904 405.481 174.904ZM406.701 184.163C407.907 182.406 409.112 179.235 409.112 179.235C411.852 179.235 416.621 180.142 416.621 183.426C413.345 182.789 409.483 182.916 406.701 184.163ZM440.084 225.8C440.449 225.314 440.038 225.256 439.749 225.442C439.461 225.626 432.488 229.738 417.355 219.893C402.222 210.047 390.525 205.913 384.49 204.937C384.49 204.937 378.807 208.979 373.627 213.513C387.754 214.709 398.832 223.351 400.103 226.339C400.22 226.612 400.516 226.625 400.605 226.359C402.118 221.744 400.125 217.895 400.125 217.895C400.125 217.895 406.702 221.956 419.457 229.415C432.214 236.872 438.029 228.531 440.084 225.8ZM320.575 173.669C317.014 175.557 311.546 177.066 307.857 176.228C310.487 181.135 319.684 184.617 323.923 184.91C321.168 188.098 316.59 191.452 312.816 192.375C314.513 194.095 322.736 195.521 328.713 194.138C324.432 200.596 315.931 207.877 309.402 207.626C317.071 213.488 331.361 211.492 342.951 201.332C344.037 207.888 342.643 217.644 341.469 220.114C346.377 219.021 353.931 210.429 356.718 205.842C360.814 214.762 360.752 218.501 360.752 218.501C369.584 206.5 391.95 199.929 400.154 172.222C400.93 169.599 400.041 168.083 397.667 168.083C396.414 168.083 356.717 167.973 356.717 167.973C334.247 167.973 319.08 163.274 309.469 158.551C311.092 164.931 317.86 172.201 320.575 173.669ZM384.416 176.432C387.697 176.432 387.393 178.406 386.421 180.017C385.448 181.628 382.399 186.641 382.399 186.641C382.399 186.641 379.217 183.236 372.866 180.714C366.515 178.194 364.725 177.778 364.725 176.432H384.416ZM237.504 217.933C236.225 221.559 235.848 225.559 236.528 230.761C240.656 239.728 242.654 256.38 241.379 265.689C247.956 256.514 250.877 246.196 252.759 237.94C256.531 241.798 261.424 247.322 264.838 251.795C265.424 246.95 266.464 240.965 267.376 236.643C272.288 241.335 282.482 247.226 289.377 249.315C284.735 229.736 276.794 217.255 276.794 217.255C270.056 217.933 259.201 216.291 254.322 211.492C255.193 218.585 260.074 226.741 260.074 226.741C249.617 227.761 242.21 224.193 237.504 217.933ZM354.452 217.933C349.748 224.193 342.341 227.761 331.884 226.741C331.884 226.741 336.764 218.585 337.635 211.492C332.755 216.291 321.903 217.933 315.163 217.255C315.163 217.255 307.223 229.736 302.58 249.315C309.477 247.226 319.669 241.335 324.582 236.643C325.494 240.965 326.532 246.95 327.119 251.795C330.534 247.322 335.426 241.798 339.2 237.94C341.081 246.196 344.002 256.514 350.578 265.689C349.303 256.38 351.301 239.728 355.428 230.761C356.108 225.559 355.731 221.559 354.452 217.933ZM264.506 279.621C268.452 285.965 271.964 293.594 273.181 300.388C276.964 295.81 280.959 287.854 283.667 278.348C286.986 282.497 292.784 290.949 295.979 297.921C299.172 290.949 304.972 282.497 308.289 278.348C310.999 287.854 314.995 295.81 318.778 300.388C319.994 293.594 323.505 285.965 327.451 279.621C330.452 291.968 342.03 303.976 353.976 304.881C346.204 294.79 345.883 277.35 346.432 271.541C341.258 263.494 337.85 256.235 336.219 251.302C332.709 254.772 327.28 261.517 322.409 269.313C322.409 269.218 322.268 259.538 320.326 247.783C315.304 252.323 306.208 255.608 301.347 256.884C298.279 261.888 297.438 265.791 295.979 272.07C294.52 265.791 293.677 261.888 290.611 256.884C285.748 255.608 276.654 252.323 271.631 247.783C269.69 259.538 269.548 269.218 269.548 269.313C264.676 261.517 259.248 254.772 255.737 251.302C254.109 256.235 250.7 263.494 245.524 271.541C246.076 277.35 245.752 294.79 237.981 304.881C249.929 303.976 261.506 291.968 264.506 279.621ZM26.9639 318.63C34.4171 321.039 46.3034 322.42 59.5779 322.42C67.6763 322.42 76.2198 321.694 83.1681 320.708C75.6631 318.152 66.4023 314.29 60.3837 310.464C52.861 310.313 42.6503 310.099 36.0939 308.092C26.4507 305.141 26.5882 298.545 26.7597 297.065C35.0963 300.416 49.2773 303.623 59.759 304.248C63.623 300.526 69.5913 296.091 75.889 292.228C51.0168 292.446 19.2642 282.595 1.42329 273.15C-2.65585 306.342 19.8849 316.339 26.9639 318.63ZM81.6396 249.804C77.8013 242.439 74.0584 232.532 73.5643 223.994C61.9312 214.853 48.6526 203.222 40.9693 189.927C36.5295 182.243 38.1682 175.508 41.3123 173.19C43.7105 181.538 59.333 204.915 73.4922 216.639C73.6038 209.147 74.8642 200.53 76.8173 194.049C60.3537 176.131 41.9003 146.454 37.4427 134.828C32.4313 138.977 23.7952 149.416 21.672 164.126C19.5351 178.933 24.3356 194.143 35.9401 209.338C44.8647 221.024 64.5118 238.449 81.6396 249.804ZM76.9071 287.459C65.5898 279.954 57.7445 272.99 53.5634 266.736C44.1066 263.058 31.8773 257.442 25.8532 252.382C17.5766 245.436 20.1966 239.183 21.1616 237.935C28.4488 245.376 44.2318 256.102 55.4416 260.875C62.4403 258.147 72.1652 256.149 81.6396 254.982C53.5606 243.887 23.4196 223.06 7.6679 203.426C4.47482 209.629 -8.5003 238.804 15.8248 262.728C28.6352 275.331 55.0238 284.026 76.9071 287.459ZM590.536 273.15C572.694 282.595 540.941 292.446 516.067 292.228C522.365 296.091 528.335 300.526 532.198 304.248C542.679 303.623 556.862 300.416 565.197 297.065C565.368 298.545 565.505 305.141 555.864 308.092C549.308 310.099 539.096 310.313 531.574 310.464C525.555 314.29 516.294 318.152 508.789 320.708C515.738 321.694 524.28 322.42 532.38 322.42C545.654 322.42 557.541 321.039 564.994 318.63C572.071 316.339 594.615 306.342 590.536 273.15ZM550.646 173.19C553.791 175.508 555.428 182.243 550.988 189.927C543.304 203.222 530.028 214.853 518.393 223.994C517.899 232.532 514.155 242.439 510.317 249.804C527.446 238.449 547.094 221.024 556.016 209.338C567.622 194.143 572.423 178.933 570.284 164.126C568.161 149.416 559.526 138.977 554.514 134.828C550.057 146.454 531.602 176.131 515.139 194.049C517.092 200.53 518.354 209.147 518.465 216.639C532.623 204.915 548.245 181.538 550.646 173.19ZM536.515 260.875C547.726 256.102 563.509 245.376 570.795 237.935C571.759 239.183 574.38 245.436 566.103 252.382C560.079 257.442 547.85 263.058 538.394 266.736C534.212 272.99 526.368 279.954 515.049 287.459C536.932 284.026 563.323 275.331 576.134 262.728C600.458 238.804 587.481 209.629 584.289 203.426C568.539 223.06 538.397 243.887 510.317 254.982C519.792 256.149 529.518 258.147 536.515 260.875ZM238.262 160.719L237.501 162.715C259.884 162.715 281.402 155.048 287.143 128.349H269.997C266.955 147.584 255.661 160.719 238.262 160.719ZM141.493 117.283C141.493 117.283 153.737 120.123 158.528 137.369C163.321 154.617 175.362 162.866 187.716 162.866L186.955 160.516C179.768 159.621 169.632 149.371 167.736 130.39C165.825 111.281 161.143 108.819 161.143 108.819C156.306 105.47 144.145 114.316 141.493 117.283ZM105.68 124.997C115.892 124.662 122.765 127.914 135.6 116.21C150.751 102.387 157.944 104.75 157.944 104.75C150.212 99.7138 139.429 97.4757 135.726 100.384C132.024 103.295 127.011 111.102 118.587 116.661C106.716 124.495 94.5222 122.427 93.9761 129.728H94.3073C94.3073 129.728 95.4707 125.334 105.68 124.997ZM115.101 170.816C121.308 176.943 121.879 189.532 121.879 189.532C121.879 189.532 129.313 176.188 123.187 162.002C117.062 147.819 104.544 136.936 116.815 128.652C109.319 128.716 101.197 126.99 97.6294 132.077C96.5188 133.661 95.4901 137.588 99.2262 143.176C103.975 150.277 115.834 166.787 106.116 177.781C113.221 176.469 115.101 170.816 115.101 170.816ZM191.772 162.79H233.832C233.832 162.79 234.873 160.235 236.199 156.544H189.408C190.735 160.235 191.772 162.79 191.772 162.79ZM216.942 103.005C216.942 100.706 215.125 98.8386 212.888 98.8386C210.649 98.8386 208.833 100.706 208.833 103.005C208.833 105.306 210.649 107.169 212.888 107.169C215.125 107.169 216.942 105.306 216.942 103.005ZM237.948 151.831C239.745 146.183 241.771 137.595 241.771 133.451C241.771 125.878 237.7 117.493 223.002 114.912C223.002 124.065 218.559 146.491 213.189 146.491H212.585C207.216 146.491 202.772 124.232 202.772 114.911C188.026 117.487 183.833 125.875 183.833 133.451C183.833 137.595 185.861 146.183 187.661 151.831H237.948ZM212.888 140.21C215.686 140.21 217.954 125.567 217.954 118.277C217.954 114.294 215.686 111.682 212.888 111.682C210.089 111.682 207.82 114.294 207.82 118.277C207.82 125.567 210.089 140.21 212.888 140.21ZM210.184 93.2853H215.59L214.915 86.342L221.671 87.037V81.4823L214.915 82.1773L215.59 75.234H210.184L210.86 82.1773L204.104 81.4823V87.037L210.86 86.342L210.184 93.2853ZM321.96 128.349H304.815C310.557 155.048 332.073 162.715 354.456 162.715L353.697 160.719C336.298 160.719 325.002 147.584 321.96 128.349ZM404.243 162.866C416.596 162.866 428.637 154.617 433.431 137.369C438.221 120.123 450.466 117.283 450.466 117.283C447.812 114.316 435.653 105.47 430.815 108.819C430.815 108.819 426.134 111.281 424.222 130.39C422.327 149.371 412.191 159.621 405.004 160.516L404.243 162.866ZM456.359 116.21C469.193 127.914 476.065 124.662 486.279 124.997C496.486 125.334 497.651 129.728 497.651 129.728H497.981C497.436 122.427 485.241 124.495 473.373 116.661C464.948 111.102 459.933 103.295 456.232 100.384C452.528 97.4757 441.745 99.7138 434.013 104.75C434.013 104.75 441.206 102.387 456.359 116.21ZM494.328 132.077C490.761 126.99 482.64 128.716 475.143 128.652C487.414 136.936 474.899 147.819 468.772 162.002C462.646 176.188 470.079 189.532 470.079 189.532C470.079 189.532 470.651 176.943 476.858 170.816C476.858 170.816 478.737 176.469 485.843 177.781C476.124 166.787 487.983 150.277 492.733 143.176C496.468 137.588 495.438 133.661 494.328 132.077ZM400.185 162.79C400.185 162.79 401.223 160.235 402.551 156.544H355.76C357.086 160.235 358.126 162.79 358.126 162.79H400.185ZM383.125 103.005C383.125 100.706 381.309 98.8386 379.07 98.8386C376.832 98.8386 375.017 100.706 375.017 103.005C375.017 105.306 376.832 107.169 379.07 107.169C381.309 107.169 383.125 105.306 383.125 103.005ZM404.298 151.831C406.098 146.183 408.126 137.595 408.126 133.451C408.126 125.875 403.931 117.487 389.185 114.911C389.185 124.232 384.743 146.491 379.374 146.491H378.77C373.4 146.491 368.955 124.065 368.955 114.912C354.258 117.493 350.188 125.878 350.188 133.451C350.188 137.595 352.213 146.183 354.009 151.831H404.298ZM379.07 140.21C381.87 140.21 384.14 125.567 384.14 118.277C384.14 114.294 381.87 111.682 379.07 111.682C376.272 111.682 374.004 114.294 374.004 118.277C374.004 125.567 376.272 140.21 379.07 140.21ZM376.369 93.2853H381.774L381.099 86.342L387.855 87.037V81.4823L381.099 82.1773L381.774 75.234H376.369L377.044 82.1773L370.287 81.4823V87.037L377.044 86.342L376.369 93.2853Z" fill="white" fill-opacity="0.03"/>
<path d="M84.4162 325.366C71.1906 329.009 54.1649 329.771 45.1397 329.771C34.4987 329.771 24.1586 329.019 18.2271 327.829L23.7158 331.394H92.6029L84.4162 325.366Z" fill="white" fill-opacity="0.03"/>
<path d="M170.216 292.891C172.398 289.264 174.887 281.09 168.065 276.781C153.109 267.331 129.989 248.457 120.868 227.287C119.785 235.92 120.611 257.342 129.875 270.672C123.106 273.262 114.427 277.465 108.592 281.363C112.283 285.561 120.875 292.812 126.648 296.755C121.936 300.949 114.62 308.98 110.781 314.238C115.645 317.135 125.447 320.65 132.937 323.023L137.267 331.394H176.063C163.429 328.219 166.901 304.402 170.216 292.891Z" fill="white" fill-opacity="0.03"/>
<path d="M471.088 227.287C461.967 248.457 438.848 267.331 423.893 276.781C417.07 281.09 419.559 289.264 421.74 292.891C425.198 305.625 429.045 330.188 418.349 331.394H454.207L459.019 323.023C466.81 320.931 476.312 317.135 481.178 314.238C477.339 308.98 470.022 300.949 465.31 296.755C471.081 292.812 479.673 285.561 483.366 281.363C477.53 277.465 468.85 273.262 462.083 270.672C471.345 257.342 472.173 235.92 471.088 227.287Z" fill="white" fill-opacity="0.03"/>
<path d="M101.188 260.173C90.2629 260.438 71.0259 262.62 61.2547 265.731C67.8968 273.729 85.2382 285.21 95.6301 290.088C87.5494 293.157 73.0539 300.95 67.0093 306.574C74.7974 311.402 91.9037 316.918 99.988 318.721L120.034 331.394H127.905L122.438 327.065C116.604 325.002 105.221 320.508 99.9906 316.59C103.529 311.344 111.473 302.271 116.196 297.33C110.614 292.954 101.717 284.877 97.5818 279.672C103.813 274.93 112.612 270.678 120.034 267.858C114.849 257.769 111.825 241.237 112.657 231.918C103.286 222.127 88.7689 203.965 84.3903 192.911C77.8775 211.146 78.5758 244.703 101.188 260.173Z" fill="white" fill-opacity="0.03"/>
<path d="M235.078 331.394H356.879H378.223C381.901 331.394 385.804 326.168 387.296 323.555C384.975 325.562 375.473 324.459 372.664 321.862C376.975 319.605 378 317.318 378.223 315.178C372.891 318.453 362.116 318.904 358.941 313.372C341.259 312.896 329.498 299.086 328.197 295.101C326.886 299.34 324.77 306.749 324.074 314.059C319.279 310.809 311.089 303.457 306.82 293.485C301.988 300.391 298.344 308.17 295.979 316.366C293.612 308.17 289.971 300.391 285.137 293.485C280.867 303.457 272.677 310.809 267.883 314.059C267.187 306.749 265.073 299.34 263.76 295.101C262.46 299.086 250.697 312.896 233.017 313.372C229.84 318.904 219.066 318.453 213.735 315.178C213.957 317.318 214.983 319.605 219.292 321.862C216.484 324.459 206.982 325.562 204.661 323.555C205.643 326.168 209.059 331.394 214.859 331.394H235.078Z" fill="white" fill-opacity="0.03"/>
<path d="M491.971 318.721C500.053 316.918 517.159 311.402 524.948 306.574C518.904 300.95 504.407 293.157 496.326 290.088C506.72 285.21 524.06 273.729 530.703 265.731C520.93 262.62 501.693 260.438 490.769 260.173C513.382 244.703 514.079 211.146 507.566 192.911C503.187 203.965 488.67 222.127 479.299 231.918C480.13 241.237 477.108 257.769 471.924 267.858C479.346 270.678 488.143 274.93 494.376 279.672C490.239 284.877 481.342 292.954 475.762 297.33C480.484 302.271 488.428 311.344 491.967 316.59C486.736 320.508 475.355 325.002 469.52 327.065L465.31 331.394H472.124L491.971 318.721Z" fill="white" fill-opacity="0.03"/>
</svg>
